<mxfile host="app.diagrams.net" modified="2024-01-18T19:57:30.878Z" agent="Mozilla/5.0 (Macintosh; Intel Mac OS X 10_15_7) AppleWebKit/537.36 (KHTML, like Gecko) Chrome/120.0.0.0 Safari/537.36" version="21.7.5" etag="9dcqbaKP_QapI1p-G7qc" type="github">
  <diagram name="Сторінка-1" id="p4b_bCF_Dm8nDEwm6lfT">
    <mxGraphModel>
      <root>
        <mxCell id="0" />
        <mxCell id="1" parent="0" />
      </root>
    </mxGraphModel>
  </diagram>
</mxfile>
